<svg width="24" height="25" viewBox="0 0 24 25" fill="none" xmlns="http://www.w3.org/2000/svg">
<path fill-rule="evenodd" clip-rule="evenodd" d="M12.425 3.19799L15.147 2.31699C15.791 2.10799 16.491 2.39899 16.799 3.00099L18.1 5.54899C18.232 5.80699 18.442 6.01799 18.701 6.14999L21.217 7.43499C21.838 7.75199 22.137 8.47399 21.922 9.13799L21.052 11.826C20.963 12.102 20.963 12.399 21.052 12.675L21.933 15.397C22.142 16.041 21.851 16.741 21.249 17.049L18.701 18.35C18.443 18.482 18.232 18.692 18.1 18.951L16.798 21.499C16.49 22.102 15.79 22.392 15.146 22.183L12.424 21.302C12.148 21.213 11.851 21.213 11.575 21.302L8.85301 22.183C8.20901 22.392 7.50901 22.101 7.20101 21.499L5.90001 18.951C5.76801 18.693 5.55801 18.482 5.29901 18.35L2.75101 17.048C2.14801 16.74 1.85801 16.04 2.06701 15.396L2.94801 12.674C3.03701 12.398 3.03701 12.101 2.94801 11.825L2.06701 9.10399C1.85901 8.45999 2.14901 7.75899 2.75201 7.45099L5.29901 6.14999C5.55801 6.01799 5.76801 5.80799 5.90001 5.54899L7.20201 3.00099C7.50901 2.39899 8.21001 2.10899 8.85401 2.31699L11.576 3.19799C11.851 3.28799 12.149 3.28799 12.425 3.19799V3.19799Z" stroke="#425C5A" stroke-width="1.5" stroke-linecap="round" stroke-linejoin="round"/>
<path d="M9 15.25L15 9.25" stroke="#425C5A" stroke-width="1.5" stroke-linecap="round" stroke-linejoin="round"/>
<path d="M9.249 9.25C9.111 9.25 8.999 9.362 9 9.5C9 9.638 9.112 9.75 9.25 9.75C9.388 9.75 9.5 9.638 9.5 9.5C9.5 9.362 9.388 9.25 9.249 9.25" stroke="#425C5A" stroke-width="1.5" stroke-linecap="round" stroke-linejoin="round"/>
<path d="M14.749 14.75C14.611 14.75 14.499 14.862 14.5 15C14.5 15.138 14.612 15.25 14.75 15.25C14.888 15.25 15 15.138 15 15C15 14.862 14.888 14.75 14.749 14.75" stroke="#425C5A" stroke-width="1.5" stroke-linecap="round" stroke-linejoin="round"/>
</svg>
