<svg width="16" height="16" viewBox="0 0 16 16" fill="none" xmlns="http://www.w3.org/2000/svg">
<path fill-rule="evenodd" clip-rule="evenodd" d="M0.922607 7.80469C0.922607 11.9468 4.28047 15.3047 8.42261 15.3047C12.5647 15.3047 15.9226 11.9468 15.9226 7.80469C15.9226 3.66255 12.5647 0.304688 8.42261 0.304688C4.28047 0.304688 0.922607 3.66255 0.922607 7.80469ZM11.9543 5.03033C11.6632 4.72947 11.1911 4.72947 10.9 5.03033L7.42089 8.62595L5.9449 7.10053C5.65384 6.79973 5.18181 6.79961 4.89082 7.10035C4.59996 7.40135 4.59984 7.88917 4.89064 8.18971L7.42089 10.8047L11.9543 6.11951C12.2454 5.81865 12.2454 5.33119 11.9543 5.03033Z" fill="#EBEEEB"/>
</svg>
