<svg width="19" height="19" viewBox="0 0 19 19" fill="none" xmlns="http://www.w3.org/2000/svg">
<path fill-rule="evenodd" clip-rule="evenodd" d="M1.92261 9.80469C1.92261 13.9468 5.28047 17.3047 9.42261 17.3047C13.5647 17.3047 16.9226 13.9468 16.9226 9.80469C16.9226 5.66255 13.5647 2.30469 9.42261 2.30469C5.28047 2.30469 1.92261 5.66255 1.92261 9.80469ZM12.9543 7.03033C12.6632 6.72947 12.1911 6.72947 11.9 7.03033L8.42089 10.626L6.9449 9.10053C6.65384 8.79973 6.18181 8.79961 5.89082 9.10035C5.59996 9.40135 5.59984 9.88917 5.89064 10.1897L8.42089 12.8047L12.9543 8.11951C13.2454 7.81865 13.2454 7.33119 12.9543 7.03033Z" fill="#56706E"/>
</svg>
