<svg width="24" height="25" viewBox="0 0 24 25" fill="none" xmlns="http://www.w3.org/2000/svg">
<path d="M2.75 3.92517L4.83 4.28517L5.793 15.7582C5.87 16.6952 6.653 17.4142 7.593 17.4112H18.502C19.399 17.4132 20.16 16.7532 20.287 15.8652L21.236 9.30717C21.342 8.57417 20.833 7.89417 20.101 7.78817C20.037 7.77917 5.164 7.77417 5.164 7.77417" stroke="#2C3544" stroke-width="1.5" stroke-linecap="round" stroke-linejoin="round"/>
<path d="M14.125 11.4701H16.898" stroke="#2C3544" stroke-width="1.5" stroke-linecap="round" stroke-linejoin="round"/>
<path fill-rule="evenodd" clip-rule="evenodd" d="M7.15435 20.8778C7.45535 20.8778 7.69835 21.1218 7.69835 21.4218C7.69835 21.7228 7.45535 21.9668 7.15435 21.9668C6.85335 21.9668 6.61035 21.7228 6.61035 21.4218C6.61035 21.1218 6.85335 20.8778 7.15435 20.8778Z" fill="#2C3544" stroke="#2C3544" stroke-width="1.5" stroke-linecap="round" stroke-linejoin="round"/>
<path fill-rule="evenodd" clip-rule="evenodd" d="M18.4346 20.8778C18.7356 20.8778 18.9796 21.1218 18.9796 21.4218C18.9796 21.7228 18.7356 21.9668 18.4346 21.9668C18.1336 21.9668 17.8906 21.7228 17.8906 21.4218C17.8906 21.1218 18.1336 20.8778 18.4346 20.8778Z" fill="#2C3544" stroke="#2C3544" stroke-width="1.5" stroke-linecap="round" stroke-linejoin="round"/>
</svg>
