<svg width="24" height="25" viewBox="0 0 24 25" fill="none" xmlns="http://www.w3.org/2000/svg">
<path d="M16.5 21.5H5C3.89543 21.5 3 20.6046 3 19.5V18.5C3 17.9477 3.44772 17.5 4 17.5H14C14.5523 17.5 15 17.9477 15 18.5V20C15 20.8284 15.6716 21.5 16.5 21.5V21.5C17.3284 21.5 18 20.8284 18 20V7C18 6.17157 18.6716 5.5 19.5 5.5V5.5C20.3284 5.5 21 6.17157 21 7V9.5C21 10.0523 20.5523 10.5 20 10.5H18" stroke="#6E798D" stroke-width="1.5" stroke-linecap="round" stroke-linejoin="round"/>
<path d="M6 9.32684V17.5" stroke="#6E798D" stroke-width="1.5" stroke-linecap="round" stroke-linejoin="round"/>
<circle cx="7" cy="6.5" r="3" stroke="#6E798D" stroke-width="1.5" stroke-linecap="round" stroke-linejoin="round"/>
<path d="M19.5 5.5H9.82739" stroke="#6E798D" stroke-width="1.5" stroke-linecap="round" stroke-linejoin="round"/>
</svg>
