<svg width="24" height="25" viewBox="0 0 24 25" fill="none" xmlns="http://www.w3.org/2000/svg">
<path fill-rule="evenodd" clip-rule="evenodd" d="M12.425 3.19801L15.147 2.31701C15.791 2.10801 16.491 2.39901 16.799 3.00101L18.1 5.54901C18.232 5.80701 18.442 6.01801 18.701 6.15001L21.217 7.43501C21.838 7.75201 22.137 8.47401 21.922 9.13801L21.052 11.826C20.963 12.102 20.963 12.399 21.052 12.675L21.933 15.397C22.142 16.041 21.851 16.741 21.249 17.049L18.701 18.35C18.443 18.482 18.232 18.692 18.1 18.951L16.798 21.499C16.49 22.102 15.79 22.392 15.146 22.183L12.424 21.302C12.148 21.213 11.851 21.213 11.575 21.302L8.85298 22.183C8.20898 22.392 7.50898 22.101 7.20098 21.499L5.89998 18.951C5.76798 18.693 5.55798 18.482 5.29898 18.35L2.75098 17.048C2.14798 16.74 1.85798 16.04 2.06698 15.396L2.94798 12.674C3.03698 12.398 3.03698 12.101 2.94798 11.825L2.06698 9.10401C1.85898 8.46001 2.14898 7.75901 2.75198 7.45101L5.29898 6.15001C5.55798 6.01801 5.76798 5.80801 5.89998 5.54901L7.20198 3.00101C7.50898 2.39901 8.20998 2.10901 8.85398 2.31701L11.576 3.19801C11.851 3.28801 12.149 3.28801 12.425 3.19801V3.19801Z" stroke="#4B5BF6" stroke-width="1.5" stroke-linecap="round" stroke-linejoin="round"/>
<path d="M9 15.25L15 9.25" stroke="#4B5BF6" stroke-width="1.5" stroke-linecap="round" stroke-linejoin="round"/>
<path d="M9.249 9.25C9.111 9.25 8.999 9.362 9 9.5C9 9.638 9.112 9.75 9.25 9.75C9.388 9.75 9.5 9.638 9.5 9.5C9.5 9.362 9.388 9.25 9.249 9.25" stroke="#4B5BF6" stroke-width="1.5" stroke-linecap="round" stroke-linejoin="round"/>
<path d="M14.749 14.75C14.611 14.75 14.499 14.862 14.5 15C14.5 15.138 14.612 15.25 14.75 15.25C14.888 15.25 15 15.138 15 15C15 14.862 14.888 14.75 14.749 14.75" stroke="#4B5BF6" stroke-width="1.5" stroke-linecap="round" stroke-linejoin="round"/>
</svg>
