<svg width="73" height="73" viewBox="0 0 73 73" fill="none" xmlns="http://www.w3.org/2000/svg">
<path fill-rule="evenodd" clip-rule="evenodd" d="M36.2807 48.5516C32.2731 45.9093 29.8613 41.4302 29.8613 36.63C29.8613 31.8298 32.2731 27.3507 36.2807 24.7084C40.2882 27.3507 42.7 31.8298 42.7 36.63C42.7 41.4302 40.2882 45.9093 36.2807 48.5516Z" stroke="#4B5BF6" stroke-width="4.5" stroke-linecap="round" stroke-linejoin="round"/>
<path d="M42.3219 33.533C45.453 31.7862 49.0788 31.1381 52.6211 31.6922C53.5717 36.2988 52.1845 41.0775 48.9151 44.4591C45.6457 47.8407 40.9166 49.3883 36.2806 48.5937C31.6446 49.3883 26.9155 47.8407 23.6461 44.4591C20.3767 41.0775 18.9895 36.2989 19.94 31.6923C23.4823 31.1382 27.1082 31.7862 30.2392 33.5331" stroke="#4B5BF6" stroke-width="4.5" stroke-linecap="round" stroke-linejoin="round"/>
<circle cx="36.2805" cy="36.7134" r="27.0112" stroke="#4B5BF6" stroke-width="4.5" stroke-linecap="round" stroke-linejoin="round"/>
</svg>
