<svg width="25" height="24" viewBox="0 0 25 24" fill="none" xmlns="http://www.w3.org/2000/svg">
<path d="M12.3125 11.25C10.2596 11.25 8.5795 9.57068 8.5795 7.517H7.0795C7.0795 10.3993 9.4314 12.75 12.3125 12.75V11.25ZM8.5795 7.517C8.5795 5.45594 10.2669 3.75 12.3125 3.75V2.25C9.42405 2.25 7.0795 4.64206 7.0795 7.517H8.5795ZM12.3125 3.75C14.3654 3.75 16.0455 5.42932 16.0455 7.483H17.5455C17.5455 4.60068 15.1936 2.25 12.3125 2.25V3.75ZM16.0455 7.483C16.0455 9.54406 14.3581 11.25 12.3125 11.25V12.75C15.2009 12.75 17.5455 10.3579 17.5455 7.483H16.0455ZM19.3125 20.25H5.3125V21.75H19.3125V20.25ZM5.3125 20.25C5.17671 20.25 5.0625 20.1358 5.0625 20H3.5625C3.5625 20.9642 4.34829 21.75 5.3125 21.75V20.25ZM5.0625 20V19H3.5625V20H5.0625ZM5.0625 19C5.0625 17.2142 6.52671 15.75 8.3125 15.75V14.25C5.69829 14.25 3.5625 16.3858 3.5625 19H5.0625ZM8.3125 15.75H16.3125V14.25H8.3125V15.75ZM16.3125 15.75C18.0983 15.75 19.5625 17.2142 19.5625 19H21.0625C21.0625 16.3858 18.9267 14.25 16.3125 14.25V15.75ZM19.5625 19V20H21.0625V19H19.5625ZM19.5625 20C19.5625 20.1358 19.4483 20.25 19.3125 20.25V21.75C20.2767 21.75 21.0625 20.9642 21.0625 20H19.5625Z" fill="#6E798D"/>
</svg>
