<svg width="24" height="24" viewBox="0 0 24 24" fill="none" xmlns="http://www.w3.org/2000/svg">
<path fill-rule="evenodd" clip-rule="evenodd" d="M19.5 11H21C21.5523 11 22 11.4477 22 12V15C22 15.5523 21.5523 16 21 16H19.5C18.1193 16 17 14.8807 17 13.5V13.5C17 12.1193 18.1193 11 19.5 11Z" stroke="#CDD2FF" stroke-width="1.5" stroke-linecap="round" stroke-linejoin="round"/>
<path d="M18 3H5" stroke="#CDD2FF" stroke-width="1.5" stroke-linecap="round" stroke-linejoin="round"/>
<path d="M21 16V18.5C21 19.8807 19.8807 21 18.5 21H5.5C4.11929 21 3 19.8807 3 18.5V8.5C3 7.11929 4.11929 6 5.5 6H18.5C19.8807 6 21 7.11929 21 8.5V11" stroke="#CDD2FF" stroke-width="1.5" stroke-linecap="round" stroke-linejoin="round"/>
</svg>
