<svg width="25" height="24" viewBox="0 0 25 24" fill="none" xmlns="http://www.w3.org/2000/svg">
<path fill-rule="evenodd" clip-rule="evenodd" d="M12.3128 16.3828C10.8292 15.4046 9.93628 13.7463 9.93628 11.9692C9.93628 10.1921 10.8292 8.53389 12.3128 7.55566C13.7965 8.53389 14.6894 10.1921 14.6894 11.9692C14.6894 13.7463 13.7965 15.4046 12.3128 16.3828Z" stroke="#425C5A" stroke-width="1.5" stroke-linecap="round" stroke-linejoin="round"/>
<path d="M14.5492 10.8225C15.7084 10.1758 17.0507 9.93589 18.3621 10.141C18.714 11.8465 18.2005 13.6156 16.9901 14.8675C15.7797 16.1194 14.0289 16.6924 12.3126 16.3982C10.5963 16.6924 8.84548 16.1194 7.63511 14.8675C6.42474 13.6156 5.91118 11.8465 6.26306 10.1411C7.57449 9.93592 8.91683 10.1758 10.076 10.8226" stroke="#425C5A" stroke-width="1.5" stroke-linecap="round" stroke-linejoin="round"/>
<ellipse cx="12.3125" cy="12" rx="10" ry="9.99997" stroke="#425C5A" stroke-width="1.5" stroke-linecap="round" stroke-linejoin="round"/>
</svg>
