<svg width="25" height="25" viewBox="0 0 25 25" fill="none" xmlns="http://www.w3.org/2000/svg">
<path fill-rule="evenodd" clip-rule="evenodd" d="M12.3128 16.8877C10.8292 15.9094 9.93628 14.2512 9.93628 12.4741C9.93628 10.697 10.8292 9.03878 12.3128 8.06055C13.7965 9.03878 14.6894 10.697 14.6894 12.4741C14.6894 14.2512 13.7965 15.9094 12.3128 16.8877Z" stroke="#B1B8C3" stroke-width="1.5" stroke-linecap="round" stroke-linejoin="round"/>
<path d="M14.5492 11.3274C15.7084 10.6807 17.0507 10.4408 18.3621 10.6459C18.714 12.3513 18.2005 14.1205 16.9901 15.3724C15.7797 16.6243 14.0289 17.1973 12.3126 16.9031C10.5963 17.1972 8.84548 16.6243 7.63511 15.3724C6.42474 14.1205 5.91118 12.3514 6.26307 10.646C7.57449 10.4408 8.91684 10.6807 10.076 11.3274" stroke="#B1B8C3" stroke-width="1.5" stroke-linecap="round" stroke-linejoin="round"/>
<ellipse cx="12.3125" cy="12.5048" rx="10" ry="9.99997" stroke="#B1B8C3" stroke-width="1.5" stroke-linecap="round" stroke-linejoin="round"/>
</svg>
