<svg width="25" height="24" viewBox="0 0 25 24" fill="none" xmlns="http://www.w3.org/2000/svg">
<path d="M12.5 11.25C10.4471 11.25 8.767 9.57068 8.767 7.517H7.267C7.267 10.3993 9.6189 12.75 12.5 12.75V11.25ZM8.767 7.517C8.767 5.45594 10.4544 3.75 12.5 3.75V2.25C9.61155 2.25 7.267 4.64206 7.267 7.517H8.767ZM12.5 3.75C14.5529 3.75 16.233 5.42932 16.233 7.483H17.733C17.733 4.60068 15.3811 2.25 12.5 2.25V3.75ZM16.233 7.483C16.233 9.54406 14.5456 11.25 12.5 11.25V12.75C15.3884 12.75 17.733 10.3579 17.733 7.483H16.233ZM19.5 20.25H5.5V21.75H19.5V20.25ZM5.5 20.25C5.36421 20.25 5.25 20.1358 5.25 20H3.75C3.75 20.9642 4.53579 21.75 5.5 21.75V20.25ZM5.25 20V19H3.75V20H5.25ZM5.25 19C5.25 17.2142 6.71421 15.75 8.5 15.75V14.25C5.88579 14.25 3.75 16.3858 3.75 19H5.25ZM8.5 15.75H16.5V14.25H8.5V15.75ZM16.5 15.75C18.2858 15.75 19.75 17.2142 19.75 19H21.25C21.25 16.3858 19.1142 14.25 16.5 14.25V15.75ZM19.75 19V20H21.25V19H19.75ZM19.75 20C19.75 20.1358 19.6358 20.25 19.5 20.25V21.75C20.4642 21.75 21.25 20.9642 21.25 20H19.75Z" fill="#425C5A"/>
</svg>
