<svg width="25" height="25" viewBox="0 0 25 25" fill="none" xmlns="http://www.w3.org/2000/svg">
<path d="M12.3125 11.7549C10.2596 11.7549 8.5795 10.0756 8.5795 8.02188H7.0795C7.0795 10.9042 9.4314 13.2549 12.3125 13.2549V11.7549ZM8.5795 8.02188C8.5795 5.96083 10.2669 4.25488 12.3125 4.25488V2.75488C9.42405 2.75488 7.0795 5.14694 7.0795 8.02188H8.5795ZM12.3125 4.25488C14.3654 4.25488 16.0455 5.93421 16.0455 7.98788H17.5455C17.5455 5.10556 15.1936 2.75488 12.3125 2.75488V4.25488ZM16.0455 7.98788C16.0455 10.0489 14.3581 11.7549 12.3125 11.7549V13.2549C15.2009 13.2549 17.5455 10.8628 17.5455 7.98788H16.0455ZM19.3125 20.7549H5.3125V22.2549H19.3125V20.7549ZM5.3125 20.7549C5.17671 20.7549 5.0625 20.6407 5.0625 20.5049H3.5625C3.5625 21.4691 4.34829 22.2549 5.3125 22.2549V20.7549ZM5.0625 20.5049V19.5049H3.5625V20.5049H5.0625ZM5.0625 19.5049C5.0625 17.7191 6.52671 16.2549 8.3125 16.2549V14.7549C5.69829 14.7549 3.5625 16.8907 3.5625 19.5049H5.0625ZM8.3125 16.2549H16.3125V14.7549H8.3125V16.2549ZM16.3125 16.2549C18.0983 16.2549 19.5625 17.7191 19.5625 19.5049H21.0625C21.0625 16.8907 18.9267 14.7549 16.3125 14.7549V16.2549ZM19.5625 19.5049V20.5049H21.0625V19.5049H19.5625ZM19.5625 20.5049C19.5625 20.6407 19.4483 20.7549 19.3125 20.7549V22.2549C20.2767 22.2549 21.0625 21.4691 21.0625 20.5049H19.5625Z" fill="#B1B8C3"/>
</svg>
