<svg width="26" height="25" viewBox="0 0 26 25" fill="none" xmlns="http://www.w3.org/2000/svg">
<path fill-rule="evenodd" clip-rule="evenodd" d="M13.0001 16.4461C11.6643 15.5653 10.8604 14.0723 10.8604 12.4722C10.8604 10.8721 11.6643 9.37913 13.0001 8.49835C14.336 9.37913 15.1399 10.8721 15.1399 12.4722C15.1399 14.0723 14.336 15.5653 13.0001 16.4461Z" stroke="#6E798D" stroke-width="1.5" stroke-linecap="round" stroke-linejoin="round"/>
<path d="M15.0139 11.4398C16.0576 10.8576 17.2662 10.6415 18.447 10.8262C18.7638 12.3618 18.3014 13.9547 17.2116 15.0819C16.1218 16.2091 14.5454 16.7249 13.0001 16.4601C11.4548 16.7249 9.8784 16.2091 8.78861 15.0819C7.69882 13.9547 7.23642 12.3618 7.55325 10.8263C8.73402 10.6416 9.94264 10.8576 10.9863 11.4399" stroke="#6E798D" stroke-width="1.5" stroke-linecap="round" stroke-linejoin="round"/>
<circle cx="13.0001" cy="12.5" r="9.00375" stroke="#6E798D" stroke-width="1.5" stroke-linecap="round" stroke-linejoin="round"/>
</svg>
