<svg width="73" height="73" viewBox="0 0 73 73" fill="none" xmlns="http://www.w3.org/2000/svg">
<circle cx="36.2808" cy="36.7134" r="36" fill="white"/>
<path fill-rule="evenodd" clip-rule="evenodd" d="M36.2812 48.5515C32.2736 45.9092 29.8618 41.4301 29.8618 36.6299C29.8618 31.8296 32.2736 27.3506 36.2812 24.7083C40.2887 27.3506 42.7005 31.8296 42.7005 36.6299C42.7005 41.4301 40.2887 45.9092 36.2812 48.5515Z" stroke="#425C54" stroke-width="4.5" stroke-linecap="round" stroke-linejoin="round"/>
<path d="M42.3224 33.5329C45.4535 31.786 49.0793 31.138 52.6216 31.6921C53.5721 36.2987 52.185 41.0774 48.9156 44.4589C45.6462 47.8405 40.9171 49.3881 36.2811 48.5936C31.6451 49.3881 26.9159 47.8405 23.6466 44.459C20.3772 41.0774 18.99 36.2988 19.9405 31.6922C23.4828 31.1381 27.1087 31.7861 30.2397 33.533" stroke="#425C54" stroke-width="4.5" stroke-linecap="round" stroke-linejoin="round"/>
<circle cx="36.281" cy="36.7133" r="27.0112" stroke="#425C54" stroke-width="4.5" stroke-linecap="round" stroke-linejoin="round"/>
</svg>
